<svg width="24" height="24" viewBox="0 0 24 24" fill="none" xmlns="http://www.w3.org/2000/svg">
<path fill-rule="evenodd" clip-rule="evenodd" d="M12 22C6.47715 22 2 17.5228 2 12C2 6.47715 6.47715 2 12 2C17.5228 2 22 6.47715 22 12C22 17.5228 17.5228 22 12 22Z" fill="#1BEBB9"/>
<path d="M13.5984 16.5V6.7H12.0164C11.9604 7.07333 11.8437 7.386 11.6664 7.638C11.489 7.89 11.2697 8.09533 11.0084 8.254C10.7564 8.40333 10.467 8.51067 10.1404 8.576C9.82302 8.632 9.49168 8.65533 9.14635 8.646V10.144H11.6104V16.5H13.5984Z" fill="#121A24"/>
</svg>
