<svg width="24" height="24" viewBox="0 0 24 24" fill="none" xmlns="http://www.w3.org/2000/svg">
<path fill-rule="evenodd" clip-rule="evenodd" d="M12 22C6.47715 22 2 17.5228 2 12C2 6.47715 6.47715 2 12 2C17.5228 2 22 6.47715 22 12C22 17.5228 17.5228 22 12 22Z" fill="#1BEBB9"/>
<path d="M8.62835 10.466H10.5324C10.5324 10.2047 10.5557 9.94333 10.6024 9.682C10.6584 9.41133 10.747 9.16867 10.8684 8.954C10.9897 8.73 11.1484 8.55267 11.3444 8.422C11.5497 8.282 11.797 8.212 12.0864 8.212C12.5157 8.212 12.8657 8.34733 13.1364 8.618C13.4164 8.87933 13.5564 9.248 13.5564 9.724C13.5564 10.0227 13.4864 10.2887 13.3464 10.522C13.2157 10.7553 13.0477 10.9653 12.8424 11.152C12.6464 11.3387 12.427 11.5113 12.1844 11.67C11.9417 11.8193 11.713 11.9687 11.4984 12.118C11.0784 12.4073 10.677 12.692 10.2944 12.972C9.92102 13.252 9.59435 13.56 9.31435 13.896C9.03435 14.2227 8.81035 14.596 8.64235 15.016C8.48368 15.436 8.40435 15.9307 8.40435 16.5H15.6004V14.792H10.9664C11.209 14.456 11.489 14.162 11.8064 13.91C12.1237 13.658 12.4504 13.4247 12.7864 13.21C13.1224 12.986 13.4537 12.762 13.7804 12.538C14.1164 12.314 14.415 12.0667 14.6764 11.796C14.9377 11.516 15.1477 11.1987 15.3064 10.844C15.465 10.4893 15.5444 10.0647 15.5444 9.57C15.5444 9.094 15.451 8.66467 15.2644 8.282C15.087 7.89933 14.8444 7.57733 14.5364 7.316C14.2284 7.05467 13.869 6.854 13.4584 6.714C13.057 6.574 12.6324 6.504 12.1844 6.504C11.5964 6.504 11.0737 6.60667 10.6164 6.812C10.1684 7.008 9.79502 7.288 9.49635 7.652C9.19768 8.00667 8.97368 8.42667 8.82435 8.912C8.67502 9.388 8.60968 9.906 8.62835 10.466Z" fill="#121A24"/>
</svg>
